<svg width="20" height="20" viewBox="0 0 20 20" fill="none" xmlns="http://www.w3.org/2000/svg">
<path d="M10 6C7.79086 6 6 7.79086 6 10C6 12.2091 7.79086 14 10 14C12.2091 14 14 12.2091 14 10C13.9976 7.79184 12.2082 6.00239 10 6ZM11.3333 10.8623C11.4688 10.987 11.4775 11.1979 11.3529 11.3333C11.2282 11.4688 11.0173 11.4775 10.8819 11.3529C10.8751 11.3466 10.8686 11.3401 10.8623 11.3333L10 10.4713L9.138 11.3333C9.00558 11.4612 8.79456 11.4575 8.66667 11.3251C8.54192 11.196 8.54192 10.9912 8.66667 10.862L9.52867 10L8.66667 9.138C8.53878 9.00558 8.54245 8.79456 8.67488 8.66667C8.80405 8.54192 9.00883 8.54192 9.138 8.66667L10 9.52867L10.8623 8.66667C10.987 8.53122 11.1979 8.52247 11.3333 8.64714C11.4688 8.77181 11.4775 8.98269 11.3529 9.11814C11.3466 9.12492 11.3401 9.13142 11.3333 9.13767L10.4713 10L11.3333 10.8623Z" fill="#FF0000"/>
</svg>
