<svg width="20" height="20" viewBox="0 0 20 20" fill="none" xmlns="http://www.w3.org/2000/svg">
<path d="M9.99379 20C11.3643 20 12.6522 19.7398 13.8576 19.2193C15.0629 18.6989 16.1259 17.976 17.0464 17.0508C17.967 16.1256 18.6894 15.0599 19.2136 13.8538C19.7379 12.6477 20 11.3631 20 10C20 8.63694 19.7379 7.35234 19.2136 6.14621C18.6894 4.9401 17.9649 3.87443 17.0402 2.9492C16.1156 2.02395 15.0506 1.30111 13.8452 0.780677C12.6398 0.260226 11.3519 0 9.98142 0C8.61919 0 7.3354 0.260226 6.13004 0.780677C4.92467 1.30111 3.86378 2.02395 2.94736 2.9492C2.03095 3.87443 1.31063 4.9401 0.786376 6.14621C0.262125 7.35234 0 8.63694 0 10C0 11.3631 0.262125 12.6477 0.786376 13.8538C1.31063 15.0599 2.03302 16.1256 2.95355 17.0508C3.87409 17.976 4.93705 18.6989 6.14242 19.2193C7.34778 19.7398 8.63157 20 9.99379 20ZM9.99379 18.1165C8.87099 18.1165 7.82043 17.9079 6.84211 17.4907C5.86377 17.0735 5.00515 16.4932 4.26624 15.7497C3.52734 15.0062 2.94943 14.1429 2.53251 13.1599C2.11559 12.1768 1.90713 11.1235 1.90713 10C1.90713 8.8765 2.11352 7.82322 2.52632 6.84014C2.93912 5.85709 3.51497 4.99381 4.25387 4.2503C4.99277 3.50681 5.85138 2.92648 6.82971 2.5093C7.80804 2.09212 8.85861 1.88353 9.98142 1.88353C11.1125 1.88353 12.1672 2.09212 13.1455 2.5093C14.1238 2.92648 14.9845 3.50681 15.7276 4.2503C16.4706 4.99381 17.0526 5.85709 17.4737 6.84014C17.8947 7.82322 18.1053 8.8765 18.1053 10C18.1053 11.1235 17.8968 12.1768 17.4799 13.1599C17.0629 14.1429 16.485 15.0062 15.7461 15.7497C15.0072 16.4932 14.1465 17.0735 13.1641 17.4907C12.1816 17.9079 11.1249 18.1165 9.99379 18.1165ZM16.6687 16.4436L16.6316 16.3197C16.483 15.8406 16.1114 15.3717 15.517 14.9132C14.9226 14.4548 14.1548 14.0768 13.2136 13.7794C12.2724 13.482 11.1992 13.3333 9.99379 13.3333C8.7967 13.3333 7.72549 13.482 6.78017 13.7794C5.83487 14.0768 5.06707 14.4548 4.47678 14.9132C3.88648 15.3717 3.51703 15.8406 3.36842 16.3197L3.33127 16.4436C3.91744 17.0219 4.62126 17.5114 5.44272 17.912C6.26419 18.3127 7.08153 18.6183 7.89474 18.829C8.70794 19.0397 9.40762 19.145 9.99379 19.145C10.58 19.145 11.2817 19.0397 12.0991 18.829C12.9164 18.6183 13.7337 18.3127 14.5511 17.912C15.3684 17.5114 16.0743 17.0219 16.6687 16.4436ZM9.99379 11.6976C10.6213 11.7059 11.1868 11.549 11.6904 11.2268C12.194 10.9046 12.5944 10.4668 12.8916 9.91326C13.1888 9.35977 13.3374 8.73193 13.3374 8.02973C13.3374 7.37712 13.1888 6.77819 12.8916 6.23295C12.5944 5.68773 12.194 5.25197 11.6904 4.92566C11.1868 4.59935 10.6213 4.43619 9.99379 4.43619C9.3746 4.43619 8.81114 4.59935 8.3034 4.92566C7.79567 5.25197 7.39319 5.68773 7.09598 6.23295C6.79875 6.77819 6.65427 7.37712 6.66254 8.02973C6.66254 8.73193 6.81115 9.3577 7.10836 9.90707C7.40557 10.4564 7.80598 10.8901 8.30959 11.2082C8.8132 11.5262 9.3746 11.6894 9.99379 11.6976Z" fill="white"/>
</svg>
