<svg width="20" height="20" viewBox="0 0 20 20" fill="none" xmlns="http://www.w3.org/2000/svg">
<path d="M2.53867 2.03752C2.07569 2.14439 2.04021 2.56108 2.04021 2.95595V5.60488V15.2657C2.04021 15.8757 1.91604 16.6441 2.10411 17.2291C2.26114 17.7177 2.80906 18.0542 3.31754 17.9625C4.36671 17.7734 4.25221 16.6965 4.25221 15.889C4.25221 15.531 4.16169 14.9582 4.62604 14.8425C4.89073 14.7765 5.22615 14.8304 5.49838 14.8304H7.30536H13.1002H15.1875C15.4971 14.8304 15.8572 14.8677 16.084 14.6109C16.3859 14.2692 16.2469 13.5395 16.2469 13.1163V9.22086V4.48393C16.2469 3.88693 16.4007 3.0254 16.0123 2.52059C15.6215 2.01259 15.0839 2.02197 14.5022 2.02197H12.6952H5.77884H3.59803C3.26354 2.02197 2.86529 1.9631 2.53876 2.0381L2.53867 2.03752ZM4.75076 4.27603C5.4848 4.13408 6.37003 4.26594 7.11852 4.26594H12.0721C12.51 4.26594 13.1891 4.1369 13.5987 4.29377C13.9327 4.42161 13.9874 4.87123 13.7201 5.0943C13.5439 5.24129 13.282 5.20077 13.0691 5.20077H11.5425H6.74466H5.37384C5.16061 5.20077 4.89031 5.24412 4.68843 5.16508C4.27143 5.00155 4.29641 4.36434 4.75072 4.27653L4.75076 4.27603ZM4.813 6.70698C5.55629 6.57632 6.42542 6.69689 7.18076 6.69689H12.0721C12.527 6.69689 13.1702 6.58095 13.5986 6.74549C13.9078 6.86425 13.9996 7.29482 13.7478 7.5216C13.5627 7.68815 13.2993 7.66294 13.0691 7.66294H11.5736H6.80694H5.405C5.17403 7.66294 4.9083 7.69863 4.68845 7.61414C4.21434 7.43207 4.34925 6.78855 4.81303 6.70703L4.813 6.70698ZM4.78178 9.16899C5.52255 9.0353 6.39607 9.15891 7.14955 9.15891H12.072C12.5131 9.15891 13.1863 9.03249 13.5986 9.1946C13.9298 9.32506 13.986 9.76815 13.7219 9.99156C13.5472 10.1396 13.282 10.0938 13.069 10.0938H11.5425H6.80693H5.37381C5.16097 10.0938 4.89213 10.1369 4.68854 10.0672C4.23217 9.9109 4.3311 9.25055 4.78186 9.16911L4.78178 9.16899ZM4.75062 11.6315C5.48057 11.4851 6.37294 11.6214 7.11838 11.6214H12.072C12.5054 11.6214 13.1961 11.4896 13.5986 11.6529C13.928 11.7866 13.9918 12.223 13.7199 12.4498C13.5437 12.5968 13.2818 12.5565 13.069 12.5565H11.5424H6.74452H5.3737C5.16048 12.5565 4.89017 12.5998 4.68829 12.5206C4.27206 12.3573 4.29832 11.7229 4.75058 11.6321L4.75062 11.6315ZM4.87515 17.9789H15.5924C16.4003 17.9789 17.6273 18.2016 17.936 17.1998C17.9959 17.0056 17.9913 16.8084 17.9913 16.6077C17.9913 16.4121 18.0312 16.1643 17.9387 15.9849C17.7952 15.7065 17.4427 15.7663 17.1812 15.7663H15.0627H8.2398H6.3082C6.04986 15.7663 5.67736 15.6989 5.43712 15.8046C5.21434 15.9026 5.18699 16.1447 5.18665 16.3584C5.1857 16.9808 5.11427 17.4044 4.87509 17.9789L4.87515 17.9789Z" fill="white"/>
</svg>
