<svg width="8" height="8" viewBox="0 0 8 8" fill="none" xmlns="http://www.w3.org/2000/svg">
<path d="M7.69984 6.39381C8.0777 6.7399 8.10211 7.32529 7.75432 7.7013C7.40654 8.07732 6.81829 8.10161 6.44043 7.75552C6.42152 7.73821 6.40339 7.72013 6.38595 7.7013L3.98043 5.3084L1.57581 7.7013C1.20641 8.05632 0.61777 8.04613 0.26101 7.67853C-0.0869889 7.31995 -0.0869889 6.75148 0.26101 6.3929L2.66562 4L0.26101 1.6071C-0.0957499 1.2395 -0.0855069 0.653721 0.283893 0.298698C0.644228 -0.0476065 1.21548 -0.0476065 1.57581 0.298698L3.98043 2.6916L6.38595 0.298698C6.73373 -0.0773182 7.32198 -0.101608 7.69984 0.244479C8.0777 0.590567 8.10211 1.17595 7.75432 1.55197C7.73693 1.57079 7.71876 1.58884 7.69984 1.60619L5.29523 4L7.69984 6.39381Z" fill="#D8E3F2"/>
</svg>
