<svg width="20" height="20" viewBox="0 0 20 20" fill="none" xmlns="http://www.w3.org/2000/svg">
<path d="M5.78473 2.05503C4.18803 2.28389 3.0195 3.64449 3.01888 5.25508C3.01874 5.71872 2.91418 6.31332 3.32438 6.64102C3.69464 6.93683 4.33396 6.82572 4.77557 6.82572C6.02712 6.82572 7.42795 7.00253 8.66272 6.80362C8.97892 6.75269 9.24915 6.58526 9.34958 6.26478C9.45293 5.93494 9.41024 5.55837 9.41024 5.21769V3.42267C9.41024 3.06512 9.45838 2.64368 9.23125 2.33968C8.98471 2.00979 8.61951 2.03901 8.25157 2.03901C7.45034 2.03901 6.57771 1.94137 5.78473 2.05503V2.05503ZM11.5781 2.05892C10.9574 2.20687 10.9801 2.88228 10.9801 3.38528V7.34927V10.0418C10.9801 10.4343 10.9068 10.9385 11.1534 11.2753C11.4666 11.7029 12.0864 11.6124 12.5499 11.6124H15.3531C15.82 11.6124 16.358 11.6858 16.8108 11.5566C17.331 11.4081 17.3714 10.9071 17.3714 10.4531V7.23708C17.3714 6.13434 17.5355 4.90479 17.0776 3.87142C16.3217 2.16567 14.6899 2.03901 13.0731 2.03901C12.605 2.03901 12.034 1.95026 11.5781 2.05892V2.05892ZM3.76641 8.41278C3.08899 8.5195 3.01888 9.05008 3.01888 9.63043V13.0709C3.01888 14.0757 2.89191 15.1541 3.29649 16.1C4.03073 17.8164 5.65971 17.9698 7.27979 17.9698C7.75884 17.9698 8.30315 18.0419 8.77485 17.9575C9.62852 17.8046 9.41024 16.5686 9.41024 15.9504V10.9019C9.41024 10.3038 9.59017 9.34279 9.2844 8.80776C9.00116 8.31222 8.36255 8.39636 7.87781 8.39636H5.18671C4.72508 8.39636 4.22279 8.34087 3.76641 8.41278V8.41278ZM11.765 13.1991C11.4348 13.2469 11.1465 13.4067 11.0407 13.744C10.7909 14.5412 10.9801 15.6423 10.9801 16.4739C10.9801 16.8604 10.913 17.3398 11.159 17.6691C11.4132 18.0092 11.7983 17.9698 12.1761 17.9698C13.031 17.9698 13.9481 18.0631 14.7924 17.9217C16.3355 17.6633 17.3713 16.2333 17.3714 14.7163C17.3715 14.2606 17.4688 13.6896 17.0659 13.3678C16.6957 13.072 16.0563 13.1831 15.6147 13.1831C14.3688 13.1831 12.9972 13.0205 11.765 13.1991V13.1991Z" fill="white"/>
</svg>
