<svg width="20" height="20" viewBox="0 0 20 20" fill="none" xmlns="http://www.w3.org/2000/svg">
<circle cx="10" cy="10" r="9" stroke="#2D2D2D" stroke-width="2"/>
<path fill-rule="evenodd" clip-rule="evenodd" d="M6.15114 12.5738C6.25093 12.3329 6.3972 12.114 6.58159 11.9297L11.5056 7.00564L12.9944 8.49436L8.0703 13.4184C7.88597 13.6028 7.66711 13.7491 7.42623 13.8489C7.18535 13.9487 6.92718 14 6.66645 14H6V13.3336C5.99999 13.0728 6.05135 12.8146 6.15114 12.5738ZM13.4944 7.99436L13.6917 7.79703C13.8891 7.59962 14 7.33187 14 7.05268C14 6.77349 13.8891 6.50574 13.6917 6.30832C13.4943 6.11091 13.2265 6 12.9473 6C12.6681 6 12.4004 6.11091 12.203 6.30832L12.0056 6.50564L13.4944 7.99436Z" fill="#2D2D2D"/>
</svg>
