<svg width="16" height="16" viewBox="0 0 16 16" fill="none" xmlns="http://www.w3.org/2000/svg">
<path d="M7.6002 9.99609C6.55086 9.99609 5.7002 10.8921 5.7002 11.9973V15.9998H9.5002V11.9973C9.5002 10.8921 8.64953 9.99609 7.6002 9.99609Z" fill="white"/>
<path d="M10.7667 11.9975V16H13.3C14.3493 16 15.2 15.104 15.2 13.9988V7.91431C15.2001 7.56775 15.0723 7.23473 14.8434 6.98573L9.46138 0.857227C8.51173 -0.225009 6.90896 -0.291456 5.88148 0.708791C5.83267 0.756321 5.78565 0.80582 5.74055 0.857227L0.367977 6.98373C0.132199 7.23376 -8.90176e-05 7.57191 4.49418e-08 7.92431V13.9988C4.49418e-08 15.104 0.850666 16 1.9 16H4.43332V11.9975C4.44517 10.1785 5.8395 8.69308 7.52299 8.6503C9.2628 8.60608 10.7534 10.1168 10.7667 11.9975Z" fill="white"/>
<path d="M7.6002 9.99609C6.55086 9.99609 5.7002 10.8921 5.7002 11.9973V15.9998H9.5002V11.9973C9.5002 10.8921 8.64953 9.99609 7.6002 9.99609Z" fill="white"/>
</svg>
