<svg width="480" height="185" viewBox="0 0 480 185" fill="none" xmlns="http://www.w3.org/2000/svg">
<path d="M226.388 46.9633C229.41 48.2143 230.901 52.5152 230.052 57.1041C229.759 58.6762 229.348 60.1209 228.971 61.5183C228.758 61.4805 228.829 61.5231 228.735 61.3767C228.484 60.22 228.234 59.0634 227.984 57.902C226.941 55.1968 225.024 53.4311 222.63 52.0809C221.762 51.5899 220.643 51.25 219.58 50.9998C217.026 50.4049 213.967 50.9101 213.098 48.7006C215.629 50.4663 218.849 49.4182 222.352 50.1075C225.019 50.6363 226.525 51.4719 227.658 53.535C227.512 49.574 222.243 48.7148 218.358 48.8895C218.377 48.8423 218.391 48.795 218.405 48.7478C221.082 47.3268 223.121 45.613 226.388 46.9633L226.388 46.9633ZM213.896 45.7877C213.929 45.7877 213.962 45.7877 213.991 45.7877C213.962 45.7877 213.929 45.7877 213.896 45.7877ZM209.34 45.3675C209.373 45.3675 209.406 45.3675 209.435 45.3675C209.406 45.3675 209.373 45.3675 209.34 45.3675ZM209.435 45.3203C209.468 45.3203 209.501 45.3203 209.529 45.3203C209.501 45.3203 209.468 45.3203 209.435 45.3203ZM198.496 45.0843C201.093 45.3203 203.628 46.1229 204.695 47.9972C200.701 47.3362 195.517 47.9169 194.974 51.8448C194.989 51.8448 195.007 51.8448 195.022 51.8448C195.182 51.1084 195.763 50.6363 196.287 50.2491C200.149 47.4023 206.621 50.4899 209.907 48.2285C209.029 50.5088 203.109 49.7156 200.654 50.5796C197.783 51.5946 195.338 53.6152 194.176 56.3535C193.846 57.4488 193.52 58.544 193.19 59.6393C193.109 59.6251 193.034 59.611 192.954 59.5968C192.751 58.3599 192.548 57.123 192.345 55.8861C191.75 52.0526 192.977 48.3371 194.738 46.5856C195.376 45.953 196.353 45.4573 197.368 45.2259C197.746 45.1787 198.119 45.1315 198.496 45.0843H198.496ZM229.674 28.7919C230.222 28.8958 231.614 28.8957 232.493 29.1649C237.133 30.5953 240.202 34.0936 242.728 37.6675C243.535 38.8053 245.121 40.7456 245.452 42.1714C245.39 42.2186 245.329 42.2658 245.268 42.313C243.969 41.9778 242.572 40.486 241.368 39.825C238.701 38.3615 234.508 37.5636 230.802 38.4181C227.795 39.1121 225.297 40.1649 223.197 41.7512C221.846 42.771 220.742 44.0315 219.25 44.9427C218.211 45.58 215.733 46.8452 214.274 45.9294C216.252 45.9718 217.612 44.598 218.83 43.6774C222.049 41.2366 224.325 38.1207 227.889 35.9726C229.877 34.7782 232.851 33.9048 235.405 35.1748C234.319 33.867 231.373 33.343 229.112 33.9567C225.916 34.8207 223.173 36.6194 221.365 38.8855C220.959 39.4048 220.548 39.9194 220.142 40.434C220.062 35.019 222.918 31.0627 226.671 29.4481C227.328 29.2593 227.984 29.0704 228.64 28.8863C228.985 28.8533 229.329 28.8202 229.674 28.7919H229.674ZM193.704 27.1018C199.105 27.0262 201.815 30.4018 203.194 34.3769C203.519 35.3258 204.237 38.3096 203.755 39.4473C203.74 39.419 203.722 39.386 203.708 39.3576C203.193 38.6353 202.674 37.9177 202.16 37.1954C200.37 34.9198 197.863 32.9984 194.691 32.125C192.949 31.6434 189.842 31.8228 189.059 33.0173C191.608 31.7756 194.625 33.31 196.239 34.3297C200.682 37.1387 202.877 42.2139 207.419 44.8954C207.933 45.2023 208.481 45.207 209.109 45.462C209.109 45.4762 209.109 45.4903 209.109 45.5092C204.931 45.9766 202.802 42.568 200.606 40.5285C198.213 38.3001 194.984 36.9263 191.122 36.1615C187.368 35.4203 183.705 36.5533 181.401 37.8988C180.839 38.2293 178.885 39.5748 178.398 39.1688C180.443 35.3731 185.235 30.1374 189.243 28.367C190.144 27.9704 191.089 27.588 192.108 27.3331C192.642 27.2575 193.175 27.1773 193.704 27.1018L193.704 27.1018ZM212.489 13.8592C213.358 14.4587 213.811 16.1394 214.227 17.1922C215.964 21.6112 216.214 28.3198 214.836 33.3005C214.501 34.5138 214.076 36.9074 213.334 37.6675C214.099 31.8134 214.51 24.3919 213.382 18.5991C213.056 16.9326 212.995 15.318 212.489 13.8592H212.489ZM212.064 13.8592C211.989 14.6712 211.909 15.4879 211.833 16.3C211.753 17.9901 211.673 19.6802 211.597 21.3704C211.446 24.7176 211.545 28.0601 212.064 31.0438C212.466 33.3288 212.456 35.5477 212.91 37.6675C212.894 37.6675 212.881 37.6675 212.862 37.6675C212.847 37.6344 212.834 37.6014 212.82 37.5731C212.22 36.7752 211.942 35.6941 211.55 34.7074C209.194 28.7777 208.731 19.1373 212.064 13.8592L212.064 13.8592ZM211.267 13.7647C211.333 13.7931 211.394 13.8261 211.455 13.8592C211.366 15.0064 210.417 15.9884 210.001 16.9562C209.199 18.8068 208.198 22.409 208.637 25.1756C209.052 27.7769 209.133 30.0524 209.812 32.2194C210.478 34.3391 211.616 36.0151 212.348 38.0877C212.607 38.8194 213.429 41.992 212.773 42.6435C213.16 41.1752 211.087 37.1907 210.516 36.2087C209.062 33.7065 205.814 28.3576 206.479 24.0944C206.602 23.5326 206.73 22.9661 206.852 22.4043C206.837 22.4043 206.824 22.4043 206.805 22.4043C204.803 27.9657 207.046 33.1494 209.671 36.7752C209.671 36.7895 209.671 36.8035 209.671 36.8177C204.728 36.0812 201.716 29.1129 203.519 23.3438C204.525 20.1287 206.583 17.2772 208.967 15.4077C209.732 14.86 210.502 14.3124 211.266 13.7647L211.267 13.7647ZM213.004 13.3398C214.198 13.5995 215.313 14.6193 216.2 15.266C219.189 17.4472 221.478 20.3553 222.446 24.5618C223.489 29.1365 220.539 35.7555 216.809 36.0671C218.556 33.1589 220.444 28.3623 219.297 23.8112C219.056 22.8622 218.834 21.9416 218.216 21.3704C220.813 26.5399 216.634 33.6215 215.166 37.4314C214.869 38.5267 214.571 39.622 214.274 40.7173C214.241 41.2319 214.213 41.7512 214.18 42.2658C213.528 38.4229 214.93 36.0482 215.822 33.2061C216.616 30.6803 217.258 26.7146 216.715 23.5326C216.2 20.5111 215.714 18.0751 214.416 15.9223C214.066 15.3463 212.754 14.0386 213.004 13.3398H213.004Z" fill="white"/>
<path d="M76.0842 177.419C76.0842 179.095 75.9709 180.266 75.749 180.941C75.5271 181.611 75.1305 182.211 74.5734 182.74C74.0022 183.278 73.2421 183.731 72.3073 184.09C71.3631 184.449 70.2867 184.708 69.0781 184.859C70.4614 183.887 71.4198 182.895 71.9627 181.89C72.5009 180.894 72.77 179.397 72.77 177.419V160.333C72.77 159.266 72.6709 158.473 72.4773 157.968C72.2837 157.458 71.9674 157.005 71.5189 156.608H77.3305C76.8726 157.005 76.5516 157.458 76.3627 157.968C76.1739 158.473 76.0842 159.266 76.0842 160.333V177.419ZM96.9702 177.801C97.4187 177.391 97.735 176.928 97.9286 176.418C98.1221 175.903 98.2213 175.11 98.2213 174.043V160.333C98.2213 159.266 98.1221 158.478 97.9286 157.968C97.735 157.458 97.4187 157.005 96.9702 156.608H108.579V159.937C108.055 159.531 107.489 159.233 106.87 159.054C106.252 158.87 105.529 158.775 104.717 158.775C104.302 158.775 103.835 158.809 103.32 158.875C102.796 158.941 102.215 159.04 101.564 159.172V165.154H106.752V168.232C106.507 167.948 106.176 167.75 105.761 167.632C105.345 167.514 104.581 167.457 103.471 167.457H101.564V175.054C102.366 175.176 103.093 175.266 103.745 175.327C104.396 175.389 104.958 175.417 105.44 175.417C106.516 175.417 107.531 175.275 108.49 174.983C109.448 174.695 110.383 174.246 111.313 173.647L109.83 177.801L96.9702 177.801ZM137.633 178.306C136.552 178.08 135.697 177.617 135.074 176.914C134.451 176.215 133.861 174.988 133.313 173.236L129.409 160.928C129.102 159.942 128.767 159.101 128.408 158.402C128.049 157.704 127.643 157.109 127.194 156.608H131.637C131.637 156.878 131.661 157.151 131.712 157.449C131.764 157.746 131.84 158.067 131.939 158.426L136.825 174.242L140.999 160.957C141.178 160.395 141.296 159.946 141.372 159.611C141.438 159.266 141.476 158.969 141.476 158.714C141.476 158.431 141.395 158.124 141.23 157.808C141.07 157.487 140.791 157.09 140.409 156.608H144.691V157.052C144.691 157.949 144.88 158.988 145.262 160.178C145.319 160.376 145.361 160.508 145.38 160.593L149.53 174.199L153.604 161.49C153.76 160.994 153.878 160.527 153.963 160.093C154.053 159.663 154.09 159.295 154.09 158.988C154.09 158.615 153.991 158.233 153.802 157.845C153.609 157.458 153.302 157.048 152.872 156.608H157.57L150.384 178.306C149.388 178.103 148.562 177.655 147.901 176.956C147.24 176.258 146.707 175.28 146.31 174.02L142.698 162.59L137.633 178.306ZM175.5 177.801C175.949 177.391 176.265 176.928 176.459 176.418C176.652 175.903 176.751 175.11 176.751 174.043V160.333C176.751 159.266 176.652 158.478 176.459 157.968C176.265 157.458 175.949 157.005 175.5 156.608H187.109V159.937C186.59 159.531 186.019 159.233 185.4 159.054C184.782 158.87 184.064 158.775 183.248 158.775C182.832 158.775 182.365 158.809 181.85 158.875C181.326 158.941 180.745 159.04 180.094 159.172V165.154H185.282V168.232C185.037 167.948 184.706 167.75 184.291 167.632C183.876 167.514 183.111 167.457 182.001 167.457H180.094V175.054C180.897 175.176 181.624 175.266 182.275 175.327C182.927 175.389 183.488 175.417 183.97 175.417C185.046 175.417 186.061 175.275 187.02 174.983C187.978 174.695 188.918 174.246 189.843 173.647L188.365 177.801L175.5 177.801ZM208.104 177.801C208.553 177.391 208.874 176.928 209.062 176.418C209.256 175.903 209.355 175.11 209.355 174.043V160.333C209.355 159.266 209.256 158.473 209.062 157.968C208.874 157.458 208.553 157.005 208.104 156.608H213.916C213.458 157.005 213.137 157.458 212.948 157.968C212.764 158.473 212.669 159.266 212.669 160.333V175.054C213.491 175.176 214.232 175.266 214.883 175.328C215.53 175.389 216.097 175.417 216.574 175.417C217.641 175.417 218.656 175.275 219.623 174.983C220.596 174.695 221.531 174.246 222.447 173.647L220.969 177.801L208.104 177.801ZM240.439 177.801C240.887 177.391 241.208 176.928 241.397 176.418C241.59 175.903 241.69 175.11 241.69 174.043V160.333C241.69 159.266 241.591 158.473 241.397 157.968C241.208 157.458 240.887 157.005 240.439 156.608H246.25C245.792 157.005 245.471 157.458 245.282 157.968C245.098 158.473 245.004 159.266 245.004 160.333V175.054C245.825 175.176 246.566 175.266 247.213 175.328C247.865 175.389 248.427 175.417 248.908 175.417C249.975 175.417 250.99 175.275 251.958 174.983C252.926 174.695 253.865 174.246 254.781 173.647L253.303 177.801L240.439 177.801ZM272.773 177.801C273.222 177.391 273.543 176.928 273.732 176.418C273.925 175.903 274.024 175.11 274.024 174.043V160.333C274.024 159.266 273.925 158.478 273.732 157.968C273.543 157.458 273.222 157.005 272.773 156.608H284.382V159.937C283.863 159.531 283.292 159.233 282.673 159.054C282.055 158.87 281.337 158.775 280.525 158.775C280.105 158.775 279.638 158.809 279.123 158.875C278.604 158.941 278.018 159.04 277.367 159.172V165.154H282.555V168.232C282.31 167.948 281.984 167.75 281.564 167.632C281.148 167.514 280.383 167.457 279.274 167.457H277.367V175.054C278.169 175.176 278.901 175.266 279.548 175.327C280.199 175.389 280.761 175.417 281.243 175.417C282.319 175.417 283.334 175.275 284.293 174.983C285.251 174.695 286.19 174.246 287.116 173.647L285.638 177.801L272.773 177.801ZM309.942 174.043C309.942 175.11 310.036 175.903 310.221 176.418C310.409 176.928 310.735 177.391 311.193 177.801H305.382C305.83 177.391 306.146 176.928 306.34 176.418C306.529 175.903 306.628 175.11 306.628 174.043V160.333C306.628 159.266 306.529 158.478 306.34 157.968C306.146 157.458 305.83 157.005 305.382 156.608H312.718C314.814 156.608 316.504 157.109 317.788 158.105C319.077 159.101 319.719 160.395 319.719 161.995C319.719 163.157 319.337 164.176 318.558 165.064C317.788 165.947 316.589 166.721 314.961 167.396L320.47 174.733C320.796 175.172 321.183 175.634 321.641 176.121C322.099 176.607 322.628 177.117 323.218 177.65L321.57 177.801H321.31C320.531 177.801 319.785 177.594 319.049 177.188C318.322 176.782 317.694 176.22 317.189 175.512L310.872 166.801C312.756 166.386 314.13 165.81 314.998 165.088C315.867 164.361 316.306 163.421 316.306 162.269C316.306 161.202 315.928 160.333 315.187 159.663C314.437 158.988 313.455 158.658 312.251 158.658C311.972 158.658 311.642 158.676 311.255 158.724C310.867 158.771 310.433 158.837 309.942 158.931V174.043ZM340.402 177.324L339.392 173.482C340.624 174.303 341.819 174.912 342.98 175.313C344.141 175.715 345.284 175.918 346.426 175.918C347.885 175.918 349.051 175.606 349.934 174.983C350.822 174.355 351.266 173.543 351.266 172.552C351.266 172.264 351.218 171.98 351.129 171.697C351.034 171.414 350.907 171.145 350.727 170.89C350.34 170.309 349.047 169.483 346.837 168.402C346.28 168.137 345.85 167.93 345.539 167.774C343.48 166.74 342.064 165.786 341.29 164.913C340.525 164.035 340.143 162.996 340.143 161.797C340.143 160.078 340.846 158.714 342.244 157.699C343.65 156.689 345.572 156.184 348.013 156.184C348.716 156.184 349.49 156.231 350.335 156.32C351.181 156.41 352.096 156.552 353.083 156.745V160.3C352.205 159.639 351.327 159.144 350.439 158.823C349.557 158.497 348.636 158.332 347.682 158.332C346.469 158.332 345.496 158.596 344.755 159.111C344.019 159.63 343.65 160.305 343.65 161.141C343.65 161.887 343.943 162.543 344.519 163.109C345.1 163.676 346.398 164.441 348.428 165.394C348.542 165.446 348.711 165.531 348.947 165.64C350.656 166.428 351.931 167.146 352.776 167.807C353.404 168.293 353.9 168.888 354.249 169.591C354.599 170.295 354.773 171.041 354.773 171.829C354.773 173.656 353.942 175.195 352.271 176.461C350.605 177.726 348.518 178.363 346.016 178.363C345.213 178.363 344.349 178.274 343.424 178.103C342.494 177.929 341.488 177.669 340.402 177.324H340.402Z" fill="white"/>
<path d="M14.352 111.831L28.2178 93.1399C29.1903 91.8133 29.9127 90.7133 30.3659 89.8163C30.8238 88.9335 31.0599 88.1828 31.0599 87.5785C31.0599 86.9176 30.8663 86.2425 30.4981 85.5485C30.1157 84.8734 29.5586 84.151 28.8221 83.4004H43.8068L24.5118 110.155L42.0883 134.931C42.7776 135.932 43.7643 137.107 45.0437 138.462C46.3089 139.812 47.9424 141.403 49.9253 143.24H44.8832C41.6776 143.24 39.029 142.621 36.9565 141.403C34.8981 140.181 32.4856 137.593 29.7191 133.637L14.352 111.831ZM12.8838 132.636C12.8838 135.653 13.1482 137.886 13.6769 139.345C14.2057 140.799 15.1168 142.093 16.4104 143.24H0C1.26524 142.093 2.16224 140.799 2.70517 139.345C3.24809 137.886 3.52663 135.653 3.52663 132.636V93.9189C3.52663 90.9021 3.24809 88.6691 2.70517 87.2386C2.16224 85.7987 1.26524 84.5193 0 83.4004H16.4104C15.1168 84.5193 14.2057 85.7987 13.6769 87.2386C13.1482 88.6691 12.8838 90.9021 12.8838 93.9189V132.636ZM91.853 114.843H109.515L101.031 91.7094L91.853 114.843ZM83.7517 135.138C83.4826 135.743 83.2937 136.375 83.1615 137.022C83.0435 137.655 82.968 138.33 82.968 139.019C82.968 139.595 83.1757 140.228 83.6006 140.917C84.0161 141.606 84.6912 142.371 85.6023 143.24H71.4722C72.6478 142.433 73.7053 141.328 74.6306 139.916C75.5748 138.519 76.5285 136.593 77.501 134.152L94.3505 91.4592C94.6904 90.6519 94.9548 89.8588 95.1153 89.094C95.2947 88.315 95.3797 87.621 95.3797 87.0214C95.3797 86.3274 95.2192 85.6948 94.8839 85.1236C94.5582 84.5476 94.0153 83.9764 93.2646 83.4004H106.88L125.925 133.547C126.822 135.814 127.78 137.655 128.795 139.081C129.81 140.506 131.132 141.89 132.733 143.24H115.586L115.808 143.018C117.38 141.356 118.178 140.138 118.178 139.359C118.178 138.448 117.824 137.093 117.13 135.313C117.059 135.02 116.983 134.813 116.927 134.666L111.795 120.829H89.4831L83.7517 135.138ZM185.25 144.755C182.691 144.094 180.5 142.654 178.692 140.431C176.884 138.198 175.222 134.874 173.707 130.446L161.602 95.5949C160.615 92.7245 159.69 90.3876 158.821 88.5794C157.943 86.7712 156.957 85.0339 155.866 83.4004L168.235 83.4476C168.292 84.4154 168.396 85.3266 168.528 86.1528C168.674 86.9884 168.868 87.7863 169.09 88.5369L183.645 131.343L197.425 95.6799C197.836 94.594 198.162 93.4893 198.398 92.3893C198.648 91.2846 198.766 90.2695 198.766 89.3442C198.766 88.5511 198.544 87.6824 198.072 86.7854C197.619 85.8742 196.84 84.7553 195.749 83.4004H209.502L185.25 144.755ZM244.749 143.24C246.015 142.093 246.912 140.785 247.455 139.345C248.002 137.886 248.281 135.653 248.281 132.636V93.9189C248.281 90.9021 248.002 88.6833 247.455 87.2386C246.912 85.7987 246.015 84.5193 244.749 83.4004H277.528V92.8C276.059 91.6528 274.454 90.8125 272.708 90.2979C270.956 89.7833 268.926 89.5189 266.632 89.5189C265.456 89.5189 264.134 89.6086 262.675 89.7974C261.207 89.991 259.559 90.2695 257.723 90.6378V107.534H272.368V116.226C271.678 115.419 270.748 114.857 269.573 114.536C268.397 114.196 266.235 114.035 263.105 114.035H257.723V135.493C259.984 135.828 262.043 136.092 263.884 136.257C265.72 136.432 267.311 136.522 268.662 136.522C271.707 136.522 274.572 136.106 277.278 135.285C279.987 134.478 282.631 133.212 285.251 131.522L281.073 143.24H244.749ZM335.351 132.636C335.351 135.653 335.616 137.886 336.149 139.345C336.678 140.785 337.589 142.093 338.883 143.24H322.472C323.738 142.093 324.635 140.785 325.177 139.345C325.72 137.886 325.999 135.653 325.999 132.636V93.9189C325.999 90.9021 325.72 88.6833 325.177 87.2386C324.635 85.7987 323.738 84.5193 322.472 83.4004H343.193C349.118 83.4004 353.882 84.812 357.517 87.621C361.147 90.43 362.97 94.0936 362.97 98.6069C362.97 101.888 361.884 104.768 359.693 107.27C357.517 109.768 354.132 111.963 349.529 113.856L365.089 134.577C366 135.814 367.105 137.121 368.399 138.505C369.692 139.874 371.175 141.314 372.837 142.815L368.191 143.24H367.455C365.264 143.24 363.149 142.669 361.076 141.521C359.013 140.374 357.252 138.783 355.822 136.786L337.986 112.18C343.292 111.004 347.178 109.39 349.633 107.346C352.088 105.282 353.324 102.639 353.324 99.3859C353.324 96.3739 352.267 93.9189 350.161 92.021C348.046 90.1232 345.28 89.1837 341.866 89.1837C341.087 89.1837 340.148 89.2403 339.057 89.3725C337.972 89.5047 336.735 89.6983 335.351 89.9627V132.636ZM420.326 132.636C420.326 135.653 420.59 137.886 421.119 139.345C421.648 140.799 422.559 142.093 423.852 143.24H407.442C408.736 142.093 409.647 140.799 410.176 139.345C410.709 137.886 410.973 135.653 410.973 132.636V93.9189C410.973 90.9021 410.709 88.6691 410.176 87.2386C409.647 85.7987 408.736 84.5193 407.442 83.4004H423.852C422.559 84.5193 421.648 85.7987 421.119 87.2386C420.59 88.6691 420.326 90.9021 420.326 93.9189V132.636Z" fill="white"/>
<path d="M383.61 0L411.324 50.0156C411.851 49.6013 412.439 49.2599 413.071 49.0056L383.61 0ZM447.872 0L418.411 49.0056C419.043 49.2599 419.63 49.6013 420.158 50.0156L447.872 0ZM415.74 5.72098L414.888 48.5402C415.167 48.5069 415.451 48.49 415.74 48.49C416.029 48.49 416.314 48.5069 416.594 48.5402L415.74 5.72098ZM372.5 30.6864L409.159 52.8326C409.385 52.3049 409.672 51.8094 410.013 51.356L372.5 30.6864ZM458.981 30.6864L421.469 51.356C421.809 51.8094 422.097 52.3049 422.323 52.8326L458.981 30.6864ZM408.654 54.6395L351.482 55.6462L408.655 56.6585C408.609 56.3279 408.584 55.9897 408.584 55.6462C408.584 55.3043 408.608 54.9686 408.654 54.6395ZM422.827 54.6395C422.874 54.9686 422.898 55.3043 422.898 55.6462C422.898 55.9897 422.873 56.3279 422.826 56.6585L479.999 55.6462L422.827 54.6395ZM409.16 58.4643L372.5 80.6116L410.014 59.9386C409.674 59.4858 409.386 58.9913 409.16 58.4643ZM422.322 58.4643C422.096 58.9913 421.808 59.4858 421.468 59.9386L458.981 80.6116L422.322 58.4643ZM411.324 61.2779L383.61 111.299L413.073 62.2891C412.44 62.0346 411.852 61.6928 411.324 61.2779ZM420.158 61.2779C419.63 61.6928 419.041 62.0346 418.409 62.2891L447.872 111.299L420.158 61.2779Z" fill="white"/>
<path d="M415.74 44.0469C409.338 44.0469 404.141 49.2444 404.141 55.6462C404.141 62.048 409.338 67.2466 415.74 67.2466C422.142 67.2466 427.34 62.048 427.34 55.6462C427.34 49.2444 422.142 44.0469 415.74 44.0469ZM415.74 48.49C419.691 48.49 422.897 51.6947 422.897 55.6462C422.897 59.5977 419.691 62.8036 415.74 62.8036C411.788 62.8036 408.584 59.5977 408.584 55.6462C408.584 51.6947 411.788 48.49 415.74 48.49Z" fill="white"/>
</svg>
