<svg width="20" height="20" viewBox="0 0 20 20" fill="none" xmlns="http://www.w3.org/2000/svg">
<path d="M6.66667 17.5H2.84083C2.75051 17.4998 2.66394 17.4638 2.60007 17.3999C2.5362 17.3361 2.50022 17.2495 2.5 17.1592V2.84083C2.50022 2.75051 2.5362 2.66394 2.60007 2.60007C2.66394 2.5362 2.75051 2.50022 2.84083 2.5H6.66667C6.99819 2.5 7.31613 2.3683 7.55055 2.13388C7.78497 1.89946 7.91667 1.58152 7.91667 1.25C7.91667 0.918479 7.78497 0.600537 7.55055 0.366116C7.31613 0.131696 6.99819 0 6.66667 0L2.84083 0C2.08767 0.000882185 1.3656 0.300467 0.833035 0.833035C0.300467 1.3656 0.000882185 2.08767 0 2.84083L0 17.1592C0.000882185 17.9123 0.300467 18.6344 0.833035 19.167C1.3656 19.6995 2.08767 19.9991 2.84083 20H6.66667C6.99819 20 7.31613 19.8683 7.55055 19.6339C7.78497 19.3995 7.91667 19.0815 7.91667 18.75C7.91667 18.4185 7.78497 18.1005 7.55055 17.8661C7.31613 17.6317 6.99819 17.5 6.66667 17.5Z" fill="white"/>
<path d="M18.901 7.34844L15.666 4.11594C15.5499 3.99988 15.4121 3.90783 15.2604 3.84505C15.1087 3.78226 14.9461 3.74996 14.782 3.75C14.6178 3.75004 14.4553 3.78241 14.3036 3.84527C14.1519 3.90813 14.0142 4.00025 13.8981 4.11636C13.782 4.23247 13.69 4.3703 13.6272 4.52198C13.5644 4.67367 13.5321 4.83623 13.5322 5.0004C13.5322 5.33195 13.664 5.64989 13.8985 5.88427L16.7418 8.72677L5.41602 8.75011C5.0845 8.75011 4.76655 8.8818 4.53213 9.11622C4.29771 9.35064 4.16602 9.66859 4.16602 10.0001C4.16602 10.3316 4.29771 10.6496 4.53213 10.884C4.76655 11.1184 5.0845 11.2501 5.41602 11.2501L16.7877 11.2293L13.8985 14.1184C13.6778 14.3555 13.5578 14.669 13.5636 14.9928C13.5695 15.3166 13.7008 15.6256 13.93 15.8545C14.1591 16.0834 14.4681 16.2144 14.792 16.22C15.1158 16.2255 15.4292 16.1052 15.666 15.8843L18.8985 12.6518C19.2467 12.3036 19.523 11.8902 19.7114 11.4352C19.8999 10.9802 19.9969 10.4926 19.9969 10.0001C19.9969 9.50765 19.8999 9.02001 19.7114 8.56503C19.523 8.11006 19.2467 7.69666 18.8985 7.34844H18.901Z" fill="white"/>
</svg>
