<svg width="20" height="20" viewBox="0 0 20 20" fill="none" xmlns="http://www.w3.org/2000/svg">
<circle cx="10" cy="10" r="9" stroke="#2D2D2D" stroke-width="2"/>
<g clip-path="url(#clip0_2140_618)">
<path d="M12.9167 6.66667C12.9167 6.22464 12.7411 5.80072 12.4286 5.48816C12.116 5.17559 11.6921 5 11.25 5H8.75004C8.30801 5 7.88409 5.17559 7.57153 5.48816C7.25897 5.80072 7.08337 6.22464 7.08337 6.66667V7.08333H12.9167V6.66667Z" fill="#2D2D2D"/>
<path d="M11.6667 11.25H8.33337C7.64302 11.25 7.08337 11.8096 7.08337 12.5V13.75C7.08337 14.4404 7.64302 15 8.33337 15H11.6667C12.3571 15 12.9167 14.4404 12.9167 13.75V12.5C12.9167 11.8096 12.3571 11.25 11.6667 11.25Z" fill="#2D2D2D"/>
<path d="M12.9167 7.91699H7.08333C6.531 7.91765 6.00148 8.13736 5.61092 8.52792C5.22037 8.91847 5.00066 9.44799 5 10.0003V11.667C5.00053 12.0719 5.11904 12.4679 5.34104 12.8065C5.56304 13.1451 5.8789 13.4117 6.25 13.5737V12.5003C6.25066 11.948 6.47037 11.4185 6.86092 11.0279C7.25148 10.6374 7.781 10.4177 8.33333 10.417H11.6667C12.219 10.4177 12.7485 10.6374 13.1391 11.0279C13.5296 11.4185 13.7493 11.948 13.75 12.5003V13.5737C14.1211 13.4117 14.437 13.1451 14.659 12.8065C14.881 12.4679 14.9995 12.0719 15 11.667V10.0003C14.9993 9.44799 14.7796 8.91847 14.3891 8.52792C13.9985 8.13736 13.469 7.91765 12.9167 7.91699ZM12.5 9.58366H11.6667C11.5562 9.58366 11.4502 9.53976 11.372 9.46162C11.2939 9.38348 11.25 9.2775 11.25 9.16699C11.25 9.05649 11.2939 8.9505 11.372 8.87236C11.4502 8.79422 11.5562 8.75033 11.6667 8.75033H12.5C12.6105 8.75033 12.7165 8.79422 12.7946 8.87236C12.8728 8.9505 12.9167 9.05649 12.9167 9.16699C12.9167 9.2775 12.8728 9.38348 12.7946 9.46162C12.7165 9.53976 12.6105 9.58366 12.5 9.58366Z" fill="#2D2D2D"/>
</g>
<defs>
<clipPath id="clip0_2140_618">
<rect width="10" height="10" fill="white" transform="translate(5 5)"/>
</clipPath>
</defs>
</svg>
