<?xml version="1.0" encoding="UTF-8" standalone="no"?>
<svg
   width="20"
   height="20"
   viewBox="0 0 20 20"
   fill="none"
   version="1.1"
   id="svg6"
   sodipodi:docname="Sales.svg"
   inkscape:version="1.1.2 (0a00cf5339, 2022-02-04)"
   xmlns:inkscape="http://www.inkscape.org/namespaces/inkscape"
   xmlns:sodipodi="http://sodipodi.sourceforge.net/DTD/sodipodi-0.dtd"
   xmlns="http://www.w3.org/2000/svg"
   xmlns:svg="http://www.w3.org/2000/svg">
  <defs
     id="defs10" />
  <sodipodi:namedview
     id="namedview8"
     pagecolor="#ffffff"
     bordercolor="#666666"
     borderopacity="1.0"
     inkscape:pageshadow="2"
     inkscape:pageopacity="0.0"
     inkscape:pagecheckerboard="0"
     showgrid="false"
     inkscape:zoom="25.385133"
     inkscape:cx="13.295183"
     inkscape:cy="12.605803"
     inkscape:window-width="1920"
     inkscape:window-height="1011"
     inkscape:window-x="0"
     inkscape:window-y="0"
     inkscape:window-maximized="1"
     inkscape:current-layer="svg6" />
  <path
     id="path2"
     style="fill:#ffffff"
     d="M 6.0234375 2 C 5.988047 1.9980919 5.9516631 2.0001062 5.9160156 2.0039062 C 5.8215556 2.0139962 5.7321869 2.0443569 5.6542969 2.0917969 L 4.3203125 2.8769531 C 4.2226825 2.9364131 4.1056281 2.96875 3.9863281 2.96875 C 3.8670181 2.96875 3.7519269 2.9364131 3.6542969 2.8769531 L 2.8925781 2.4257812 C 2.8055281 2.3773112 2.7049325 2.3511462 2.6015625 2.3476562 C 2.4981925 2.3441663 2.3958175 2.36379 2.3046875 2.40625 C 2.2135575 2.44871 2.1376844 2.5112206 2.0839844 2.5878906 C 2.0302844 2.6645706 2.00143 2.75405 2 2.84375 L 2 17.15625 C 2.00143 17.24595 2.0302844 17.335409 2.0839844 17.412109 C 2.1376844 17.488809 2.2135575 17.55125 2.3046875 17.59375 C 2.3958175 17.63615 2.4981925 17.655844 2.6015625 17.652344 C 2.7049325 17.648844 2.8055281 17.622719 2.8925781 17.574219 L 3.6796875 17.123047 C 3.7773175 17.063547 3.8943719 17.03125 4.0136719 17.03125 C 4.1329719 17.03125 4.2480731 17.063547 4.3457031 17.123047 L 5.6796875 17.908203 C 5.7773175 17.967703 5.8943719 18 6.0136719 18 C 6.1329719 18 6.2480731 17.967703 6.3457031 17.908203 L 7.6796875 17.123047 C 7.7773175 17.063547 7.8943719 17.03125 8.0136719 17.03125 C 8.1329719 17.03125 8.2480731 17.063547 8.3457031 17.123047 L 9.6796875 17.908203 C 9.7773175 17.967703 9.8944019 18 10.013672 18 C 10.132972 18 10.249956 17.967703 10.347656 17.908203 L 11.679688 17.123047 C 11.777287 17.063547 11.894372 17.03125 12.013672 17.03125 C 12.132972 17.03125 12.249956 17.063547 12.347656 17.123047 L 13.679688 17.908203 C 13.777287 17.967703 13.894372 18 14.013672 18 C 14.132972 18 14.249956 17.967703 14.347656 17.908203 L 15.679688 17.123047 C 15.777287 17.063547 15.894372 17.03125 16.013672 17.03125 C 16.132972 17.03125 16.249956 17.063547 16.347656 17.123047 L 17.132812 17.574219 C 17.219313 17.617019 17.318469 17.638172 17.417969 17.638672 C 17.517469 17.639172 17.614172 17.617972 17.701172 17.576172 C 17.788172 17.534372 17.861763 17.473791 17.914062 17.400391 C 17.966362 17.326891 17.9959 17.24245 18 17.15625 L 18 2.84375 C 17.9986 2.75405 17.969716 2.6645706 17.916016 2.5878906 C 17.862316 2.5112206 17.786412 2.44871 17.695312 2.40625 C 17.604112 2.36379 17.501838 2.3441663 17.398438 2.3476562 C 17.295037 2.3511463 17.194422 2.3773113 17.107422 2.4257812 L 16.320312 2.8769531 C 16.222713 2.9364131 16.105628 2.96875 15.986328 2.96875 C 15.867028 2.96875 15.750044 2.9364131 15.652344 2.8769531 L 14.320312 2.0917969 C 14.222713 2.0323369 14.105628 2 13.986328 2 C 13.867028 2 13.750044 2.0323369 13.652344 2.0917969 L 12.320312 2.8769531 C 12.222713 2.9364131 12.105628 2.96875 11.986328 2.96875 C 11.867028 2.96875 11.750044 2.9364131 11.652344 2.8769531 L 10.320312 2.0917969 C 10.222713 2.0323369 10.105668 2 9.9863281 2 C 9.8670281 2 9.7519269 2.0323369 9.6542969 2.0917969 L 8.3203125 2.8769531 C 8.2226825 2.9364131 8.1056381 2.96875 7.9863281 2.96875 C 7.8670281 2.96875 7.7519269 2.9364131 7.6542969 2.8769531 L 6.3203125 2.0917969 C 6.2321425 2.0380969 6.1296089 2.0057244 6.0234375 2 z M 9.9960938 6 C 10.542504 6 11.057416 6.1053031 11.541016 6.3144531 C 12.024716 6.5235931 12.451713 6.8110675 12.820312 7.1796875 C 13.188913 7.5483175 13.476447 7.9746812 13.685547 8.4570312 C 13.894747 8.9393812 14 9.4536 14 10 C 14 10.5464 13.894747 11.060669 13.685547 11.542969 C 13.476447 12.025369 13.188913 12.451713 12.820312 12.820312 C 12.451712 13.188913 12.025369 13.476447 11.542969 13.685547 C 11.060669 13.894747 10.5464 14 10 14 C 9.4536 14 8.9393813 13.894747 8.4570312 13.685547 C 7.9746913 13.476447 7.5483175 13.188913 7.1796875 12.820312 C 6.8110675 12.451712 6.5236031 12.025369 6.3144531 11.542969 C 6.1053031 11.060669 6 10.5464 6 10 C 6 9.4536 6.1053031 8.9393813 6.3144531 8.4570312 C 6.5236031 7.9746812 6.8104144 7.5483175 7.1777344 7.1796875 C 7.5450444 6.8110675 7.970775 6.5235931 8.453125 6.3144531 C 8.935475 6.1053031 9.4496937 6 9.9960938 6 z M 9.9960938 6.6660156 C 9.5333538 6.6660156 9.0998756 6.7525881 8.6972656 6.9238281 C 8.2946456 7.0950681 7.9419419 7.3327919 7.6386719 7.6386719 C 7.3354119 7.9445519 7.0989744 8.2985619 6.9277344 8.7011719 C 6.7564944 9.1037819 6.6699219 9.53726 6.6699219 10 C 6.6699219 10.4628 6.7564944 10.896228 6.9277344 11.298828 C 7.0989744 11.701428 7.336055 12.054775 7.640625 12.359375 C 7.945195 12.663875 8.2985619 12.901719 8.7011719 13.074219 C 9.1037819 13.246719 9.53726 13.333984 10 13.333984 C 10.4628 13.333984 10.896881 13.246719 11.300781 13.074219 C 11.704681 12.901719 12.058681 12.663875 12.363281 12.359375 C 12.667881 12.054775 12.904972 11.701428 13.076172 11.298828 C 13.247472 10.896228 13.333984 10.4628 13.333984 10 C 13.333984 9.53726 13.246719 9.1037819 13.074219 8.7011719 C 12.901619 8.2985619 12.663222 7.9445519 12.357422 7.6386719 C 12.051522 7.3327919 11.697522 7.0950681 11.294922 6.9238281 C 10.892322 6.7525881 10.458804 6.6660156 9.9960938 6.6660156 z M 8.8789062 8.2226562 L 9.9335938 8.2226562 L 10.121094 8.2226562 L 10.310547 8.2226562 L 11.132812 8.2226562 C 11.190312 8.2226562 11.238137 8.2420437 11.273438 8.2773438 C 11.308738 8.3126338 11.326172 8.3585056 11.326172 8.4160156 C 11.326172 8.4683056 11.308737 8.5135144 11.273438 8.5527344 C 11.238137 8.5919444 11.190312 8.6113281 11.132812 8.6113281 L 10.560547 8.6113281 C 10.625947 8.6819181 10.676944 8.7626725 10.714844 8.8515625 C 10.752744 8.9404525 10.779869 9.0347587 10.792969 9.1367188 L 11.152344 9.1367188 C 11.209944 9.1367188 11.257669 9.1548063 11.292969 9.1914062 C 11.328169 9.2280062 11.345703 9.2764744 11.345703 9.3339844 C 11.345703 9.3862744 11.328169 9.43084 11.292969 9.46875 C 11.257669 9.50666 11.209944 9.5253906 11.152344 9.5253906 L 10.789062 9.5253906 C 10.747263 9.7737506 10.627088 9.9895381 10.429688 10.173828 C 10.232287 10.358128 9.9396644 10.451172 9.5527344 10.451172 L 9.4511719 10.451172 L 10.607422 11.533203 C 10.638722 11.559403 10.663994 11.589147 10.683594 11.623047 C 10.703194 11.657047 10.712891 11.694528 10.712891 11.736328 C 10.712891 11.806928 10.689678 11.863797 10.642578 11.904297 C 10.595578 11.944797 10.539909 11.964844 10.474609 11.964844 C 10.396209 11.964844 10.317987 11.929975 10.242188 11.859375 L 8.8242188 10.521484 C 8.7850087 10.484884 8.7501062 10.447403 8.7226562 10.408203 C 8.6952063 10.368903 8.6816406 10.317253 8.6816406 10.251953 C 8.6816406 10.168253 8.7094287 10.101688 8.7617188 10.054688 C 8.8139987 10.007587 8.8798975 9.984375 8.9609375 9.984375 L 9.5332031 9.984375 C 9.7319031 9.984375 9.8940512 9.9462606 10.019531 9.8691406 C 10.145031 9.7920106 10.225766 9.6770206 10.259766 9.5253906 L 8.875 9.5253906 C 8.8201 9.5253906 8.7729281 9.50666 8.7363281 9.46875 C 8.6997281 9.43084 8.6816406 9.3862744 8.6816406 9.3339844 C 8.6816406 9.2764744 8.6997281 9.2280062 8.7363281 9.1914062 C 8.7729281 9.1548063 8.8201 9.1367188 8.875 9.1367188 L 10.25 9.1367188 C 10.2134 8.9955388 10.137884 8.8870237 10.021484 8.8085938 C 9.9051744 8.7301637 9.7591444 8.6894531 9.5839844 8.6894531 L 8.8789062 8.6894531 C 8.8161663 8.6894531 8.7612369 8.6662006 8.7167969 8.6191406 C 8.6723569 8.5720806 8.6503906 8.5178281 8.6503906 8.4550781 C 8.6503906 8.3897181 8.6723569 8.3354556 8.7167969 8.2910156 C 8.7612369 8.2465756 8.8161663 8.2226562 8.8789062 8.2226562 z " />
</svg>
